<?xml version="1.0" encoding="utf-8"?>
<!-- Generator: Adobe Illustrator 25.4.1, SVG Export Plug-In . SVG Version: 6.00 Build 0)  -->
<svg version="1.1" id="Layer_1" xmlns="http://www.w3.org/2000/svg" xmlns:xlink="http://www.w3.org/1999/xlink" x="0px" y="0px"
	 viewBox="0 0 1782.5 359" style="enable-background:new 0 0 1782.5 359;" xml:space="preserve">
<style type="text/css">
	.st0{fill:#E3D585;}
</style>
<g transform="translate(0.000000,1080.000000) scale(0.100000,-0.100000)">
	<path class="st0" d="M2098.6,10790.9c-134-23-266-67-517-174c-72-31-145-56-162-56c-16,0-99,11-183,24c-220,35-255,38-416,37
		c-138,0-147-1-168-23c-67-69-115-442-132-1043l-7-230l-120-32c-217-57-385-132-393-177c-15-77,259-127,715-129l263-2v-852v-853h235
		h235v868v868l103,12c56,7,117,15,135,19l32,5v-886v-886h225h224l126,173c68,94,204,280,301,412c96,132,259,355,362,495
		c102,140,225,307,272,370l85,115l3-782l2-783h230h230v1175v1175h-222h-223l-570-775c-313-426-573-775-578-775c-4,0-6,235-5,522
		l3,523l50,12c28,7,133,33,235,58c304,76,568,171,663,240c56,42,61,67,15,91c-63,33-143,45-331,51c-180,6-189,7-197,27
		c-5,12-31,102-59,201c-171,619-327,1002-405,994C2148.6,10798.9,2123.6,10794.9,2098.6,10790.9z"/>
	<path class="st0" d="M6418.6,9685.9c-47-7-137-30-200-50l-115-37l-610,3c-454,2-626-1-673-10c-433-84-779-406-898-831
		c-35-129-45-370-19-505c87-466,445-827,914-922c64-13,173-15,686-13l610,1l90-30c152-50,236-64,400-65c220-1,356,30,551,124
		c340,164,587,483,670,861c25,114,29,324,10,444c-43,259-168,501-355,685c-160,157-353,266-568,321
		C6767.6,9698.9,6558.6,9709.9,6418.6,9685.9z M5545.6,9106.9c1,0-19-41-43-91c-91-184-128-347-128-555s36-366,127-550
		c23-47,44-89,46-93c1-5-145-7-325-5c-370,4-386,6-525,88c-287,169-400,543-255,843c96,200,286,338,501,366
		C4983.6,9114.9,5538.6,9112.9,5545.6,9106.9z"/>
	<path class="st0" d="M9093.6,9650.9c-297-25-536-133-737-335c-105-105-180-214-253-368c-30-64-55-118-55-121s114-6,254-6h253l35,53
		c90,135,208,228,357,281c84,30,90,31,266,31c171,0,184-2,260-28c120-43,181-82,275-176c68-68,94-103,127-171c23-47,49-112,58-145
		c23-83,31-299,15-389c-51-289-237-502-505-577c-107-31-321-33-438-6c-208,49-391,206-472,405l-23,57l399,3l399,2v230v230h-649h-649
		l-6-92c-12-157,14-373,60-516c112-342,411-639,752-746c241-76,564-76,804,0c204,64,401,200,538,370c189,235,270,474,270,794
		c0,345-102,616-320,852c-129,140-306,254-483,312C9481.6,9641.9,9263.6,9664.9,9093.6,9650.9z"/>
	<path class="st0" d="M16487.6,9649.9c-298-25-539-138-745-351c-235-243-338-505-338-863c0-178,12-264,56-405
		c135-429,510-748,952-809c110-16,325-13,433,4c251,41,453,144,633,325c175,175,273,358,327,610c26,120,25,430,0,548
		c-67,306-232,559-479,735C17103.6,9602.9,16803.6,9676.9,16487.6,9649.9z M16873.6,9156.9c118-41,180-80,276-175
		c73-73,93-101,132-181c57-119,77-213,77-369c0-185-35-316-120-447c-46-70-143-167-209-208c-183-116-487-138-713-53
		c-209,80-374,276-425,507c-24,112-22,321,6,425c69,262,251,445,511,515c64,17,99,20,230,17
		C16776.6,9184.9,16802.6,9180.9,16873.6,9156.9z"/>
	<path class="st0" d="M10588.6,8425.9v-1195h228h227l290,398c160,218,421,575,580,793l290,397l3-794l2-794h240h240v1195v1195l-232-2
		l-231-3l-236-320c-130-177-391-532-581-789l-345-469l-3,791l-2,792h-235h-235V8425.9z"/>
	<path class="st0" d="M12968.6,8425.9v-1195h235h235v1195v1195h-235h-235V8425.9z"/>
	<path class="st0" d="M13488.6,9390.9v-230h380h380v-965v-965h235h235v965v965h380h380v230v230h-995h-995V9390.9z"/>
</g>
</svg>
