<svg id="Layer_1" data-name="Layer 1" xmlns="http://www.w3.org/2000/svg" viewBox="0 0 989.05 243.1"><path d="M289.34,0V240.72H214.2v-120l-37.06,120h-64.6l-37.06-120v120H0V0H92.48l53,144.5L197.2,0Z" transform="translate(0 0)"/><path d="M398.82,60.18V89.76h74.8v56.78h-74.8v34h85v60.18H323.34V0H483.82V60.18Z" transform="translate(0 0)"/><path d="M743.24,240.72H667.76l-79.9-121v121H512.38V0h75.48l79.9,123.08V0h75.48Z" transform="translate(0 0)"/><path d="M851,0V135.66q0,16.67,7.31,26.35T882,171.7q16.32,0,24.14-9.69t7.82-26.35V0h75.14V135.66q0,34.34-14.28,58.65a91.46,91.46,0,0,1-39.1,36.55q-24.82,12.24-55.42,12.24T826,230.86a87.14,87.14,0,0,1-36.89-36.38q-13.26-24.14-13.26-58.82V0Z" transform="translate(0 0)"/></svg>