<svg xmlns="http://www.w3.org/2000/svg" viewBox="0 0 101.16 101.16"><defs><style>.cls-1{fill:#fff200;}.cls-2{fill:#ecf0f1;}.cls-3{fill:#5b5a57;}.cls-4{fill:gray;}.cls-5{fill:#b3b3b3;}.cls-6{fill:#747371;}.cls-7{fill:#e3835a;}.cls-8{fill:#65b2fe;}.cls-9{fill:#bec3c7;}</style></defs><g id="Layer_2" data-name="Layer 2"><g id="Layer_1-2" data-name="Layer 1"><g id="Layer_2-2" data-name="Layer 2"><g id="_1" data-name=" 1"><rect class="cls-1" width="101.16" height="101.16" rx="16"/><g id="_2000_Address_Communication_Email_Envelope_Letter" data-name=" 2000 Address Communication Email Envelope Letter"><path class="cls-2" d="M66.56,51.39V28.63H41.27V25.49A4.41,4.41,0,0,0,40,22.36a4,4,0,0,0-2.53-1.22h-.61a4.49,4.49,0,0,0-4.45,4.45v25.6L43.3,60.7l6.77,6,6.78-6,9.71-8.4Z"/><polygon class="cls-3" points="66.56 41.27 66.56 51.39 66.56 52.2 56.85 60.59 50.07 66.56 43.3 60.59 32.37 51.09 32.37 41.27 21.04 41.27 21.04 79.21 79.21 79.21 79.21 41.27 66.56 41.27"/><polygon class="cls-4" points="57.66 61.51 56.85 60.59 50.07 66.56 43.3 60.59 42.49 61.51 21.04 79.21 79.21 79.21 57.66 61.51"/><polygon class="cls-5" points="79.21 41.27 79.21 79.21 57.66 61.51 56.85 60.59 66.97 51.79 79.21 41.27"/><polygon class="cls-5" points="32.37 51.09 43.3 60.59 42.49 61.51 21.04 79.21 21.04 41.27 32.37 51.09"/><polygon class="cls-6" points="32.37 41.27 32.37 51.09 21.04 41.27 32.37 41.27"/><polygon class="cls-6" points="79.21 41.27 66.56 52.2 66.56 51.39 66.56 41.27 79.21 41.27"/><rect class="cls-7" x="37.43" y="34.9" width="7.59" height="7.59"/><rect class="cls-6" x="58.98" y="72.83" width="2.53" height="2.53"/><rect class="cls-6" x="53.92" y="72.83" width="2.53" height="2.53"/><rect class="cls-6" x="48.86" y="72.83" width="2.53" height="2.53"/><rect class="cls-6" x="43.8" y="72.83" width="2.53" height="2.53"/><rect class="cls-6" x="38.74" y="72.83" width="2.53" height="2.53"/><path class="cls-8" d="M61.5,36.21H50.07a1.32,1.32,0,0,1,0-2.63H61.5a1.36,1.36,0,0,1,1.32,1.32A1.49,1.49,0,0,1,61.5,36.21Z"/><path class="cls-8" d="M61.5,41.27H50.07a1.32,1.32,0,0,1,0-2.63H61.5A1.35,1.35,0,0,1,62.82,40,1.49,1.49,0,0,1,61.5,41.27Z"/><path class="cls-8" d="M61.5,46.33H50.07a1.32,1.32,0,0,1,0-2.63H61.5A1.36,1.36,0,0,1,62.82,45,1.49,1.49,0,0,1,61.5,46.33Z"/><path class="cls-8" d="M61.5,51.39H38.74a1.32,1.32,0,0,1,0-2.63H61.5a1.34,1.34,0,0,1,1.32,1.31A1.51,1.51,0,0,1,61.5,51.39Z"/><path class="cls-9" d="M37.33,21H75.06a4.06,4.06,0,0,1,4,4.05v3.54h-38v-3.1a4.49,4.49,0,0,0-1.31-3.13A3.85,3.85,0,0,0,37.33,21Z"/></g></g></g></g></g></svg>