<svg xmlns="http://www.w3.org/2000/svg" viewBox="0 0 101.16 101.16"><defs><style>.cls-1{fill:#f15a22;}.cls-2{fill:#313a52;}.cls-3{fill:#ffd24d;}.cls-4{fill:#d7deed;}.cls-5{fill:#ef727a;}.cls-6{fill:#ffd8a8;}.cls-7{fill:#193772;}.cls-8{fill:#65b2fe;}.cls-9{fill:#232b3f;}</style></defs><g id="Layer_2" data-name="Layer 2"><g id="Layer_1-2" data-name="Layer 1"><g id="Layer_2-2" data-name="Layer 2"><g id="_1" data-name=" 1"><rect class="cls-1" width="101.16" height="101.16" rx="16"/><g id="_1994_Badge_Card_Document_Id_Identification" data-name=" 1994 Badge Card Document Id Identification"><rect class="cls-2" x="21.04" y="31.16" width="58.17" height="11.43"/><polygon class="cls-3" points="53.92 31.16 53.92 37.43 46.33 37.43 46.33 31.16 46.33 21.04 53.92 21.04 53.92 31.16"/><rect class="cls-4" x="21.04" y="42.49" width="58.17" height="36.72"/><path class="cls-5" d="M43.8,64.84v9.21H26.1V64.84a7.21,7.21,0,0,1,7.18-7.18h3.24a7.23,7.23,0,0,1,7.28,7.18Z"/><path class="cls-6" d="M34.9,47.54A5.07,5.07,0,0,1,40,52.6a5.13,5.13,0,0,1-5.06,5.06,5.06,5.06,0,1,1,0-10.12Z"/><rect class="cls-7" x="70.31" y="51.39" width="2.53" height="2.53"/><rect class="cls-7" x="65.25" y="51.39" width="2.53" height="2.53"/><rect class="cls-7" x="60.19" y="51.39" width="2.53" height="2.53"/><rect class="cls-7" x="55.13" y="51.39" width="2.53" height="2.53"/><rect class="cls-7" x="50.07" y="51.39" width="2.53" height="2.53"/><path class="cls-8" d="M72.83,60.19H50.07a1.32,1.32,0,0,1,0-2.63H72.83a1.32,1.32,0,1,1,.23,2.63A.89.89,0,0,1,72.83,60.19Z"/><path class="cls-8" d="M72.83,67.78H50.07a1.32,1.32,0,0,1,0-2.63H72.83a1.32,1.32,0,0,1,.23,2.63A.89.89,0,0,1,72.83,67.78Z"/><path class="cls-8" d="M72.83,75.36H50.07a1.32,1.32,0,0,1,0-2.63H72.83a1.32,1.32,0,1,1,.23,2.63A.89.89,0,0,1,72.83,75.36Z"/><path class="cls-9" d="M56.45,38.74H43.8a1.32,1.32,0,0,1,0-2.63H56.45a1.34,1.34,0,0,1,1.31,1.32A1.4,1.4,0,0,1,56.45,38.74Z"/></g></g></g></g></g></svg>