<?xml version="1.0" encoding="utf-8"?>
<!-- Generator: Adobe Illustrator 24.3.0, SVG Export Plug-In . SVG Version: 6.00 Build 0)  -->
<svg version="1.1" id="Layer_1" xmlns="http://www.w3.org/2000/svg" xmlns:xlink="http://www.w3.org/1999/xlink" x="0px" y="0px"
	 viewBox="0 0 101.2 101.2" style="enable-background:new 0 0 101.2 101.2;" xml:space="preserve">
<style type="text/css">
	.st0{fill:#00A651;}
	.st1{fill:#FCF4EB;}
	.st2{fill:#ADA092;}
	.st3{fill:#D69043;}
	.st4{fill:#C17B2F;}
	.st5{fill:#9B5D1F;}
</style>
<g id="Layer_2_1_">
	<g id="Layer_1-2">
		<g id="Layer_2-2">
			<g id="_1">
				<path class="st0" d="M16,0h69.2c8.8,0,16,7.2,16,16v69.2c0,8.8-7.2,16-16,16H16c-8.8,0-16-7.2-16-16V16C0,7.2,7.2,0,16,0z"/>
				<g id="_1978_Certificate_Degree_Diploma_Document_Education">
					<polygon class="st1" points="81.8,61.1 55.9,70.6 22.9,73.9 19.2,36.5 22.9,32.9 78.5,27.3 					"/>
					<polygon class="st2" points="22.9,32.9 22.9,36.5 19.2,36.5 					"/>
					<polygon class="st2" points="81.8,61.1 55.9,70.6 77.5,55.3 					"/>
					
						<rect x="27.4" y="42.7" transform="matrix(0.9948 -0.102 0.102 0.9948 -4.2745 3.8743)" class="st3" width="16.8" height="2.1"/>
					
						<rect x="27.9" y="49.6" transform="matrix(0.9948 -0.102 0.102 0.9948 -4.9725 3.9693)" class="st4" width="16.8" height="2.1"/>
					
						<rect x="28.8" y="56.4" transform="matrix(0.9948 -0.102 0.102 0.9948 -5.6693 4.0898)" class="st5" width="16.8" height="2.1"/>
					
						<rect x="54.8" y="46.8" transform="matrix(0.9948 -0.102 0.102 0.9948 -4.5492 6.7005)" class="st4" width="16.8" height="2.1"/>
					
						<rect x="54.3" y="39.9" transform="matrix(0.9948 -0.102 0.102 0.9948 -3.8512 6.6055)" class="st3" width="16.8" height="2.1"/>
					<rect x="55.7" y="53.7" transform="matrix(0.9948 -0.102 0.102 0.9948 -5.246 6.821)" class="st5" width="16.8" height="2.1"/>
				</g>
			</g>
		</g>
	</g>
</g>
</svg>
