<svg xmlns="http://www.w3.org/2000/svg" viewBox="0 0 101.2 101.2"><defs><style>.cls-1{fill:#00a651;}.cls-2{fill:#ecf0f1;}.cls-3{fill:#bec3c7;}.cls-4{fill:#ef727a;}.cls-5{fill:#65b2fe;}.cls-6{fill:#ffd24d;}</style></defs><g id="Layer_2" data-name="Layer 2"><g id="Layer_1-2" data-name="Layer 1"><g id="Layer_2-2" data-name="Layer 2"><g id="_1" data-name=" 1"><path class="cls-1" d="M16,0H85.2a16,16,0,0,1,16,16V85.2a16,16,0,0,1-16,16H16a16,16,0,0,1-16-16V16A16,16,0,0,1,16,0Z"/><g id="_1978_Certificate_Degree_Diploma_Document_Education" data-name=" 1978 Certificate Degree Diploma Document Education"><path class="cls-2" d="M72.9,21H34.3a6.36,6.36,0,0,0-6.4,6.3v43H21.5v5a3.94,3.94,0,0,0,3.1,3.8c-.2,0-.4.1-.6.1H65.2a5.7,5.7,0,0,0,5.7-5.7h0V28.6h7.6v-2A5.59,5.59,0,0,0,72.9,21Z"/><path class="cls-3" d="M29.2,74.2v1.1a4.12,4.12,0,0,1-3.6,4.1,3.78,3.78,0,0,1-4-3.8v-5h7.6v3.6Z"/><path class="cls-3" d="M78.5,26.6v2H40.6V27.3A6.17,6.17,0,0,0,34.5,21H73a5.57,5.57,0,0,1,5.5,5.6Z"/><path class="cls-2" d="M40.6,28.6V27.3a6.35,6.35,0,0,0-12.7.1h0v48a3.8,3.8,0,0,1-3.8,3.8H65.3A5.7,5.7,0,0,0,71,73.5h0v-45Z"/><path class="cls-4" d="M53.2,65.2v8.9l-3.8-2.5-3.8,2.5V65.2h0A6.3,6.3,0,0,0,53.2,65.2Z"/><path class="cls-5" d="M64.6,50.1H34.3a1.32,1.32,0,0,1-1.2-1.4,1.49,1.49,0,0,1,1.2-1.2H64.6A1.49,1.49,0,0,1,66,48.8h0A1.35,1.35,0,0,1,64.6,50.1Z"/><path class="cls-5" d="M64.6,43.8H34.3a1.32,1.32,0,0,1-1.2-1.4,1.49,1.49,0,0,1,1.2-1.2H64.6A1.49,1.49,0,0,1,66,42.5h0A1.42,1.42,0,0,1,64.6,43.8Z"/><path class="cls-5" d="M64.6,37.4H34.3A1.32,1.32,0,0,1,33.1,36a1.49,1.49,0,0,1,1.2-1.2H64.6A1.49,1.49,0,0,1,66,36.1h0A1.35,1.35,0,0,1,64.6,37.4Z"/><path class="cls-6" d="M49.5,53.9a6.42,6.42,0,0,1,3.9,11.5,5.85,5.85,0,0,1-3.8,1.3,6.46,6.46,0,0,1-3.8-1.3,6.42,6.42,0,0,1,3.7-11.5Z"/></g></g></g></g></g></svg>