<?xml version="1.0" encoding="utf-8"?>
<!-- Generator: Adobe Illustrator 24.3.0, SVG Export Plug-In . SVG Version: 6.00 Build 0)  -->
<svg version="1.1" id="Layer_1" xmlns="http://www.w3.org/2000/svg" xmlns:xlink="http://www.w3.org/1999/xlink" x="0px" y="0px"
	 viewBox="0 0 101.2 101.2" style="enable-background:new 0 0 101.2 101.2;" xml:space="preserve">
<style type="text/css">
	.st0{fill:#00ADDC;}
	.st1{fill:#FF8F8F;}
	.st2{fill:#6B5151;}
</style>
<g id="Layer_2_1_">
	<g id="Layer_1-2">
		<g id="Layer_2-2">
			<g id="_1">
				<path class="st0" d="M16,0h69.2c8.8,0,16,7.2,16,16v69.2c0,8.8-7.2,16-16,16H16c-8.8,0-16-7.2-16-16V16C0,7.2,7.2,0,16,0z"/>
				<g id="_1981_Note_Notes_Paper_Plan_Reminder">
					
						<rect x="25.8" y="16.3" transform="matrix(0.9883 -0.1523 0.1523 0.9883 -7.1263 8.119)" class="st1" width="47.2" height="68.6"/>
					<g>
						<path class="st2" d="M46.2,75.1l0.5,3l-8,1.2l-0.5-3L46.2,75.1 M47.9,72.8l-12,1.8l1.1,7l12-1.8L47.9,72.8L47.9,72.8z"/>
					</g>
					<g>
						<path class="st2" d="M64.2,40.4l5.2,34l-15.5,2.3l-5.2-34L64.2,40.4 M65.9,38.2L46.4,41L52.2,79l19.5-2.9L65.9,38.2L65.9,38.2
							z"/>
					</g>
					<g>
						<path class="st2" d="M44.5,64.7l0.5,3l-8,1.2l-0.5-3L44.5,64.7 M46.2,62.4l-12,1.8l1.1,7l12-1.8L46.2,62.4L46.2,62.4z"/>
					</g>
					<g>
						<path class="st2" d="M42.9,54.2l0.5,3l-8,1.2l-0.5-3L42.9,54.2 M44.6,51.9l-12,1.8l1.1,7l12-1.8L44.6,51.9L44.6,51.9z"/>
					</g>
					<g>
						<path class="st2" d="M41.3,43.8l0.5,3l-8,1.2l-0.5-3L41.3,43.8 M42.9,41.5l-12,1.8l1.1,7l12-1.8L42.9,41.5L42.9,41.5z"/>
					</g>
					<g>
						
							<rect x="29.6" y="23.7" transform="matrix(0.9883 -0.1523 0.1523 0.9883 -3.4596 7.3224)" class="st2" width="33" height="5.1"/>
						<g>
							<path class="st2" d="M61.2,22.4l0.5,3L31,30.1l-0.5-3L61.2,22.4 M62.8,20.1l-34.6,5.3l1.1,7l34.6-5.3L62.8,20.1L62.8,20.1z"
								/>
						</g>
					</g>
					<g>
						
							<rect x="29.9" y="33.2" transform="matrix(0.9883 -0.1523 0.1523 0.9883 -5.0432 6.5861)" class="st2" width="21.1" height="6.1"/>
					</g>
				</g>
			</g>
		</g>
	</g>
</g>
</svg>
