<svg xmlns="http://www.w3.org/2000/svg" viewBox="0 0 101.16 101.16"><defs><style>.cls-1{fill:#00addc;}.cls-2{fill:#74829c;}.cls-3{fill:#bec3c7;}.cls-4{fill:#ecf0f1;}.cls-5{fill:#e3835a;}.cls-6{fill:#f68b1f;}</style></defs><g id="Layer_2" data-name="Layer 2"><g id="Layer_1-2" data-name="Layer 1"><g id="Layer_2-2" data-name="Layer 2"><g id="_1" data-name=" 1"><rect class="cls-1" width="101.16" height="101.16" rx="16"/><g id="_1981_Note_Notes_Paper_Plan_Reminder" data-name=" 1981 Note Notes Paper Plan Reminder"><rect class="cls-2" x="35.51" y="21.65" width="42.99" height="7.59"/><rect class="cls-2" x="20.33" y="39.35" width="42.99" height="7.59"/><polygon class="cls-3" points="78.5 54.52 73.44 62.11 73.44 54.52 78.5 54.52"/><polygon class="cls-3" points="63.33 72.23 58.27 79.81 58.27 72.23 63.33 72.23"/><path class="cls-4" d="M63.33,46.94V72.23H58.27v7.58H20.33V46.94ZM27.92,67.17V64.64H25.39v2.53Zm0-6.37V58.27H25.39V60.8Zm0-6.28V52H25.39v2.52Z"/><rect class="cls-5" x="25.39" y="64.64" width="2.53" height="2.53"/><rect class="cls-5" x="25.39" y="58.27" width="2.53" height="2.53"/><rect class="cls-5" x="25.39" y="52" width="2.53" height="2.53"/><path class="cls-6" d="M57.05,54.52H33a1.32,1.32,0,0,1-.23-2.63H57.05a1.32,1.32,0,0,1,.23,2.63Z"/><path class="cls-6" d="M57.05,60.8H33a1.32,1.32,0,1,1-.23-2.63.89.89,0,0,1,.23,0h24a1.32,1.32,0,0,1,.23,2.63A.89.89,0,0,1,57.05,60.8Z"/><path class="cls-6" d="M57.05,67.17H33a1.32,1.32,0,1,1-.23-2.63.89.89,0,0,1,.23,0h24a1.34,1.34,0,0,1,1.32,1.31A1.42,1.42,0,0,1,57.05,67.17Z"/><path class="cls-6" d="M73.44,36.82H69.6a1.32,1.32,0,1,1-.23-2.63h4.07a1.32,1.32,0,1,1,.23,2.63Z"/><path class="cls-6" d="M73.44,43.09H69.6a1.32,1.32,0,1,1-.23-2.63h4.07a1.36,1.36,0,0,1,1.32,1.32,1.27,1.27,0,0,1-1.23,1.31Z"/><path class="cls-6" d="M73.44,49.47H69.6a1.32,1.32,0,0,1-.23-2.63.89.89,0,0,1,.23,0h3.84a1.32,1.32,0,1,1,.23,2.63Z"/><path class="cls-4" d="M78.5,20.33h-43a1.36,1.36,0,0,0-1.32,1.32V34.29a1.32,1.32,0,1,0,2.63.23.89.89,0,0,0,0-.23V22.86H77.29V54.12L72.83,60.8H68.48a1.32,1.32,0,0,0,0,2.63H74a.09.09,0,0,0,.1-.1h0a.09.09,0,0,0,.1-.1h0l.1-.1h0l.1-.1h0l5.06-7.58a1.61,1.61,0,0,0,.2-.71V21.65a1.09,1.09,0,0,0-.81-1.3A1.35,1.35,0,0,0,78.5,20.33Z"/></g></g></g></g></g></svg>