<?xml version="1.0" encoding="utf-8"?>
<!-- Generator: Adobe Illustrator 24.3.0, SVG Export Plug-In . SVG Version: 6.00 Build 0)  -->
<svg version="1.1" id="Layer_1" xmlns="http://www.w3.org/2000/svg" xmlns:xlink="http://www.w3.org/1999/xlink" x="0px" y="0px"
	 viewBox="0 0 101.2 101.2" style="enable-background:new 0 0 101.2 101.2;" xml:space="preserve">
<style type="text/css">
	.st0{fill:#FFF200;}
	.st1{fill:#6C799E;}
	.st2{fill:#7B88B7;}
	.st3{fill:none;stroke:#FFFFFF;stroke-width:2;stroke-miterlimit:10;}
	.st4{fill:#C5CAD8;}
	.st5{fill:#AAAEBA;}
	.st6{fill:#DDA526;stroke:#1D1859;stroke-miterlimit:10;}
	.st7{fill:none;stroke:#1D1859;stroke-width:0.25;stroke-miterlimit:10;}
</style>
<g id="Layer_2_1_">
	<g id="Layer_1-2">
		<g id="Layer_2-2">
			<g id="_1">
				<path class="st0" d="M85.2,0H16C7.2,0,0,7.2,0,16v69.2c0,8.8,7.2,16,16,16h69.2c8.8,0,16-7.2,16-16V16C101.2,7.2,94,0,85.2,0z
					 M48.2,58.5l2.4,0.9l2.4-0.9H48.2z"/>
				
					<rect x="32.9" y="18.1" transform="matrix(0.9972 -7.510129e-02 7.510129e-02 0.9972 -3.5767 4.3503)" class="st1" width="46.4" height="63.2"/>
				<polygon class="st2" points="74,74.6 35.3,82.8 30.8,83.7 28.5,83.7 20.4,45.1 15.6,22.4 61,12.8 62,17.6 68.8,49.6 				"/>
				<line class="st3" x1="60.2" y1="46.7" x2="34.4" y2="51.8"/>
				<polygon class="st4" points="87.8,42.5 87.8,83.7 13.3,83.7 13.3,42.5 20.4,45.1 32.8,49.7 48.2,55.4 50.6,56.3 53,55.4 
					68.8,49.6 79,45.8 				"/>
				<polygon class="st5" points="87.8,81.2 87.8,83.7 13.3,83.7 13.3,81.2 48.2,55.4 50.6,56.3 53,55.4 				"/>
				<circle class="st6" cx="21.6" cy="57.1" r="5.7"/>
				<polygon class="st7" points="20.6,53.7 19.1,59.9 24.9,58.4 				"/>
				<line class="st3" x1="20.8" y1="28.3" x2="33.1" y2="25.9"/>
				<line class="st3" x1="26.1" y1="33.3" x2="56.1" y2="27.4"/>
				<line class="st3" x1="27.3" y1="39.2" x2="57.2" y2="33.3"/>
				<line class="st3" x1="28.5" y1="46.5" x2="58.4" y2="40.6"/>
			</g>
		</g>
	</g>
</g>
</svg>
