<?xml version="1.0" encoding="utf-8"?>
<!-- Generator: Adobe Illustrator 24.3.0, SVG Export Plug-In . SVG Version: 6.00 Build 0)  -->
<svg version="1.1" id="Layer_1" xmlns="http://www.w3.org/2000/svg" xmlns:xlink="http://www.w3.org/1999/xlink" x="0px" y="0px"
	 viewBox="0 0 101.2 101.2" style="enable-background:new 0 0 101.2 101.2;" xml:space="preserve">
<style type="text/css">
	.st0{fill:#F15A22;}
	.st1{fill:#313A52;}
	.st2{fill:#FFD24D;}
	.st3{fill:#D7DEED;}
	.st4{fill:#EF727A;}
	.st5{fill:#FFD8A8;}
	.st6{fill:#232B3F;}
	.st7{fill:#FFB07B;stroke:#19235E;stroke-miterlimit:10;}
	.st8{fill:#6987CC;}
	.st9{fill:#E2B059;}
	.st10{fill:none;stroke:#19235E;stroke-width:2;stroke-miterlimit:10;}
</style>
<g id="Layer_2_1_">
	<g id="Layer_1-2">
		<g id="Layer_2-2">
			<g id="_1">
				<path class="st0" d="M16,0h69.2c8.8,0,16,7.2,16,16v69.2c0,8.8-7.2,16-16,16H16c-8.8,0-16-7.2-16-16V16C0,7.2,7.2,0,16,0z"/>
				<g id="_1994_Badge_Card_Document_Id_Identification">
					<rect x="30.4" y="21.1" class="st1" width="40.4" height="9.6"/>
					<polygon class="st2" points="53.8,21.1 53.8,26.4 47.4,26.4 47.4,21.1 47.4,12.6 53.8,12.6 					"/>
					<rect x="30.4" y="30.7" class="st3" width="40.4" height="51.8"/>
					<rect x="32" y="48.9" class="st1" width="15.4" height="15.4"/>
					<path class="st4" d="M44.7,61v3.3h-10V61c0-2.2,1.9-4,4-4h1.9C42.9,57,44.6,58.8,44.7,61L44.7,61z"/>
					<path class="st5" d="M39.7,51.3c1.6,0,2.9,1.3,2.9,2.9l0,0c0,1.6-1.3,2.9-2.9,2.9s-2.9-1.3-2.9-2.9
						C36.8,52.6,38.1,51.3,39.7,51.3L39.7,51.3L39.7,51.3z"/>
					<path class="st6" d="M55.9,27.5H45.3c-0.6-0.1-1.1-0.6-1-1.2c0.1-0.5,0.5-0.9,1-1H56c0.6,0,1.1,0.5,1.1,1.1
						C57,26.9,56.5,27.5,55.9,27.5z"/>
					<circle class="st7" cx="50.9" cy="39.1" r="5.2"/>
					<rect x="30.4" y="77" class="st8" width="40.4" height="5.6"/>
					<rect x="30.4" y="71.4" class="st9" width="40.4" height="5.6"/>
					<line class="st10" x1="53.8" y1="52.4" x2="65.3" y2="52.4"/>
					<line class="st10" x1="53.8" y1="56.6" x2="65.3" y2="56.6"/>
				</g>
			</g>
		</g>
	</g>
</g>
</svg>
