<svg xmlns="http://www.w3.org/2000/svg" viewBox="0 0 101.2 101.2"><defs><style>.cls-1{fill:#fdb913;}.cls-2{fill:#524fa1;}.cls-3{fill:#fff;}.cls-4{fill:#afb9d2;}</style></defs><g id="Layer_2" data-name="Layer 2"><g id="Layer_1-2" data-name="Layer 1"><g id="Layer_2-2" data-name="Layer 2"><g id="_1" data-name=" 1"><path class="cls-1" d="M16,0H85.2a16,16,0,0,1,16,16V85.2a16,16,0,0,1-16,16H16a16,16,0,0,1-16-16V16A16,16,0,0,1,16,0Z"/><g id="_1987_Archive_Box_Data_Document_File" data-name=" 1987 Archive Box Data Document File"><path class="cls-2" d="M77.9,43.8a1.3,1.3,0,0,1-1.2-.8L68.2,22.3H66.5a1.32,1.32,0,0,1-1.2-1.4,1.49,1.49,0,0,1,1.2-1.2H69a1.3,1.3,0,0,1,1.2.8L79.1,42a1.26,1.26,0,0,1-.5,1.6c-.1,0-.1.1-.2.1S78.1,43.8,77.9,43.8Z"/><path class="cls-2" d="M22.2,43.8a.9.9,0,0,1-.5-.1,1.55,1.55,0,0,1-.8-1.6l8.9-21.5a1.3,1.3,0,0,1,1.2-.8h2.5a1.49,1.49,0,0,1,1.4,1.3,1.3,1.3,0,0,1-1.3,1.2H32L23.5,43A1.34,1.34,0,0,1,22.2,43.8Z"/><polygon class="cls-2" points="61.5 42.5 61.5 50.1 38.7 50.1 38.7 42.5 21 42.5 21 62.7 79.2 62.7 79.2 42.5 61.5 42.5"/><rect class="cls-3" x="55.1" y="74.2" width="2.5" height="2.5"/><rect class="cls-4" x="55.1" y="55.1" width="2.5" height="2.5"/><rect class="cls-3" x="48.9" y="74.2" width="2.5" height="2.5"/><rect class="cls-4" x="48.9" y="55.1" width="2.5" height="2.5"/><rect class="cls-3" x="42.5" y="74.2" width="2.5" height="2.5"/><rect class="cls-4" x="42.5" y="55.1" width="2.5" height="2.5"/><path class="cls-2" d="M75.4,80.4H24.8a5.08,5.08,0,0,1-5.1-4.9V70.4a1.3,1.3,0,1,1,2.6-.2v5.2a2.48,2.48,0,0,0,2.5,2.5H75.5A2.48,2.48,0,0,0,78,75.4V70.3a1.3,1.3,0,0,1,2.6-.2v5.2A5.21,5.21,0,0,1,75.4,80.4Z"/><path class="cls-2" d="M56.5,71.6H43.8c-2.8,0-5.1-1.6-5.1-3.8a1.3,1.3,0,0,1,2.6-.2v.2c0,.5,1,1.3,2.5,1.3H56.5c1.5,0,2.5-.7,2.5-1.3a1.3,1.3,0,1,1,2.6-.2v.2C61.5,69.9,59.3,71.6,56.5,71.6Z"/><path class="cls-3" d="M60.2,26.1a1.32,1.32,0,0,1-1.3-1.3V23.5H41.3v1.3a1.3,1.3,0,0,1-2.6.2V22.3A1.35,1.35,0,0,1,40.1,21H60.3a1.32,1.32,0,0,1,1.3,1.3v2.5A1.49,1.49,0,0,1,60.2,26.1Z"/><path class="cls-3" d="M64,32.4a1.32,1.32,0,0,1-1.3-1.3V29.8H37.4v1.3A1.32,1.32,0,0,1,36,32.3a1.49,1.49,0,0,1-1.2-1.2V28.6a1.32,1.32,0,0,1,1.3-1.3H63.9a1.32,1.32,0,0,1,1.3,1.3v2.5A1.3,1.3,0,0,1,64,32.4Z"/><path class="cls-3" d="M66.6,38.7a1.32,1.32,0,0,1-1.3-1.3V36.1H34.9v1.3a1.32,1.32,0,0,1-1.3,1.3,1.24,1.24,0,0,1-1.2-1.3h0V34.9a1.32,1.32,0,0,1,1.3-1.3H66.6a1.32,1.32,0,0,1,1.3,1.3v2.5A1.4,1.4,0,0,1,66.6,38.7Z"/></g></g></g></g></g></svg>