<?xml version="1.0" encoding="utf-8"?>
<!-- Generator: Adobe Illustrator 24.3.0, SVG Export Plug-In . SVG Version: 6.00 Build 0)  -->
<svg version="1.1" id="Layer_1" xmlns="http://www.w3.org/2000/svg" xmlns:xlink="http://www.w3.org/1999/xlink" x="0px" y="0px"
	 viewBox="0 0 101.2 101.2" style="enable-background:new 0 0 101.2 101.2;" xml:space="preserve">
<style type="text/css">
	.st0{fill:#FDB913;}
	.st1{fill:#A5A5AF;}
	.st2{fill:#C0C0CC;}
	.st3{fill:#E9E9FF;}
	.st4{fill:#E9E9FF;stroke:#3C3C5E;stroke-width:3;stroke-miterlimit:10;}
	.st5{fill:#524FA1;}
</style>
<g id="Layer_2_1_">
	<g id="Layer_1-2">
		<g id="Layer_2-2">
			<g id="_1">
				<path class="st0" d="M16,0h69.2c8.8,0,16,7.2,16,16v69.2c0,8.8-7.2,16-16,16H16c-8.8,0-16-7.2-16-16V16C0,7.2,7.2,0,16,0z"/>
				<path class="st1" d="M88.3,44.1c0,0.2-0.1,0.5-0.2,0.7l-8.7,22.8l-1.3,3.5l-3.5,3.3l-7.2,6.8l-0.5,0.5c-0.5,0.5-1.1,0.8-1.7,0.9
					c-1.3,0.3-2.7-0.1-3.7-1.1l-3.9-4.1l-0.1-0.1L24.6,42.6c-0.4-0.4-0.6-0.8-0.8-1.3c-0.1-0.3-0.2-0.6-0.2-1
					c-0.1-1.2,0.3-2.3,1.2-3.2l1-0.9l2.3-2.2l12.1-11.5l7.7-7.3l4-3.8c1.5-1.5,4-1.4,5.4,0.1l25.9,27.4l3.9,4.2L88.3,44.1z"/>
				<path class="st2" d="M88.3,44.1c0,0.2-0.1,0.5-0.2,0.7l-8.7,22.8l-4.8,6.8l-4.9,6.9c-0.2,0.2-0.3,0.4-0.5,0.6
					c-1.1,1-2.7,1.3-4,0.8c-0.3-0.1-0.5-0.2-0.8-0.4l-6.6-4.7l-0.2-0.1L20.6,51.2c-0.1-0.1-0.3-0.2-0.4-0.4c-1.4-1.3-1.6-3.4-0.5-5
					l3.9-5.5l1.3-1.8l3.2-4.5l9-12.7l4.3-6.1c1.2-1.7,3.6-2.1,5.4-0.9l1.2,0.9l31.2,22.1l8.1,5.8l1,0.7C88.3,43.9,88.3,44,88.3,44.1
					z"/>
				<path class="st3" d="M88.3,44.1c0,0.2-0.1,0.5-0.2,0.7l-8.7,22.8l-1.3,3.5l-3.3,8.7c-0.8,2-3,3-5,2.2l-0.6-0.2l-1.8-0.7
					l-9.7-3.7l-0.1,0L19.7,63c-2-0.8-3-3-2.2-5l2.8-7.2l3.6-9.6l1-2.8l0.9-2.3l5-13.2c0.8-2,3-3,5-2.2l1.3,0.5l3.2,1.2l38.9,14.8
					l4.2,1.6l2.5,1c1.7,0.6,2.6,2.3,2.5,3.9C88.3,43.9,88.3,44,88.3,44.1z"/>
				<line class="st4" x1="37.4" y1="28" x2="32.7" y2="40.2"/>
				<line class="st4" x1="43.9" y1="30.4" x2="39.2" y2="42.7"/>
				<line class="st4" x1="51" y1="33.1" x2="46.4" y2="45.4"/>
				<path class="st5" d="M88.9,50.3l-8.8,37.2L11.4,71.3l10.3-43.5l36,8.5c2.9,0.7,4.8,3.6,4.1,6.6l-0.2,1L88.9,50.3z"/>
			</g>
		</g>
	</g>
</g>
</svg>
