<?xml version="1.0" encoding="utf-8"?>
<!-- Generator: Adobe Illustrator 24.3.0, SVG Export Plug-In . SVG Version: 6.00 Build 0)  -->
<svg version="1.1" id="Layer_1" xmlns="http://www.w3.org/2000/svg" xmlns:xlink="http://www.w3.org/1999/xlink" x="0px" y="0px"
	 viewBox="0 0 1933 645.5" style="enable-background:new 0 0 1933 645.5;" xml:space="preserve">
<style type="text/css">
	.st0{fill:#E4D586;}
	.st1{enable-background:new    ;}
</style>
<path class="st0" d="M328.3,275.4c0,0.5,0,1,0,1.4c0,1,0,1.9,0,2.9v0.1l-0.3,38.6c0,0.1,0,0.3,0,0.4H34.3
	c4.8,10.4,7.5,16.3,14.5,16.3h275.7c-5.8,13.3-18.3,22.9-33.2,24.7c-1.6,0.2-3.3,0.3-5,0.3H46.5C20.8,360,0,339.2,0,313.4V31.6
	C0,19.3,10,9.3,22.3,9.3L232,9.5c41.5,0,57.8,25.6,54.2,57.9h-70.4v16.3h67c-2,6.7-4.7,13.5-8.1,20.4H210v16.3h55.2
	c-5.8,8.6-12.7,17.1-20.6,25h-39c-21.4,0.7-67.7,8.7-83.9,62.3c12.8-20.8,34.5-35.5,68.7-40.5c8.1-1.2,17-1.8,26.6-1.8
	c85.7,0,110.7,48.5,111.4,108.8l0,0v1v0.2L328.3,275.4L328.3,275.4z"/>
<g>
	<path class="st0" d="M720,6L593,252.5V360H482V252.5L355,6h127l56.5,125.5L595,6H720z"/>
	<path class="st0" d="M778.7,333.8c-27.5-19.8-42.4-48.9-44.8-87.3h118c1.7,20.3,10.7,30.5,27,30.5c6,0,11.1-1.4,15.3-4.3
		c4.2-2.8,6.3-7.3,6.3-13.3c0-8.3-4.5-15.1-13.5-20.3s-23-11.1-42-17.8c-22.7-8-41.4-15.8-56.3-23.5c-14.8-7.7-27.6-18.8-38.3-33.5
		C739.8,149.8,734.7,131,735,108c0-23,5.9-42.6,17.8-58.8c11.8-16.2,28-28.4,48.5-36.8C821.7,4.2,844.8,0,870.5,0
		c43.3,0,77.8,10,103.3,30s38.9,48.2,40.3,84.5H894.5c-0.3-10-2.8-17.2-7.5-21.5s-10.3-6.5-17-6.5c-4.7,0-8.5,1.6-11.5,4.8
		c-3,3.2-4.5,7.6-4.5,13.3c0,8,4.4,14.6,13.3,19.8c8.8,5.2,22.9,11.4,42.3,18.8c22.3,8.3,40.8,16.3,55.3,24s27.1,18.3,37.8,32
		s16,30.8,16,51.5c0,21.7-5.3,41.1-16,58.3c-10.7,17.2-26.2,30.6-46.5,40.3c-20.3,9.7-44.5,14.5-72.5,14.5
		C841.2,363.5,806.2,353.6,778.7,333.8z"/>
	<path class="st0" d="M1335.5,6v88h-94v266h-111V94h-93V6H1335.5z"/>
	<path class="st0" d="M1476.5,94.5V138h110v83.5h-110v50h125V360h-236V6h236v88.5H1476.5z"/>
	<path class="st0" d="M1917.5,188.3c-10.3,18.2-25.6,32.6-45.8,43.3c-20.2,10.7-44.6,16-73.3,16h-44V360h-111V6h155
		c43.3,0,76.6,11,99.8,33c23.2,22,34.8,51.5,34.8,88.5C1933,149.8,1927.8,170.1,1917.5,188.3z M1820.5,127.5
		c0-21.7-11.5-32.5-34.5-32.5h-31.5v65h31.5C1809,160,1820.5,149.2,1820.5,127.5z"/>
</g>
<g class="st1">
	<path class="st0" d="M81.8,456c-1.4-2.6-3.4-4.5-6-5.9s-5.7-2-9.2-2c-6.1,0-11,2-14.7,6s-5.5,9.3-5.5,16c0,7.1,1.9,12.7,5.8,16.7
		s9.2,6,15.9,6c4.6,0,8.5-1.2,11.7-3.5s5.5-5.7,7-10.1H62.9v-13.9h41v17.5c-1.4,4.7-3.8,9.1-7.1,13.1c-3.3,4-7.6,7.3-12.7,9.8
		s-10.9,3.7-17.4,3.7c-7.6,0-14.4-1.7-20.4-5s-10.6-8-14-13.9c-3.3-5.9-5-12.7-5-20.4c0-7.6,1.7-14.4,5-20.4s8-10.6,13.9-14
		c5.9-3.3,12.7-5,20.4-5c9.3,0,17.1,2.2,23.4,6.7c6.4,4.5,10.6,10.7,12.6,18.6L81.8,456L81.8,456z"/>
	<path class="st0" d="M162.5,495.3h-28.9L129,509h-19.7l28-77.3h21.8l28,77.3h-19.9L162.5,495.3z M157.7,480.7l-9.6-28.3l-9.5,28.3
		H157.7z"/>
	<path class="st0" d="M235,508.9l-16.1-29.2h-4.5v29.2h-18.8v-77.3h31.6c6.1,0,11.3,1.1,15.6,3.2s7.5,5,9.6,8.8
		c2.1,3.7,3.2,7.8,3.2,12.4c0,5.1-1.5,9.7-4.4,13.8c-2.9,4-7.2,6.9-12.8,8.6l17.8,30.6L235,508.9L235,508.9z M214.4,466.4h11.7
		c3.5,0,6-0.8,7.8-2.5c1.7-1.7,2.6-4.1,2.6-7.2c0-2.9-0.9-5.2-2.6-6.9c-1.7-1.7-4.3-2.5-7.8-2.5h-11.7V466.4z"/>
	<path class="st0" d="M269.1,449.7c3.3-6,7.9-10.6,13.8-14c5.9-3.3,12.6-5,20.1-5c9.2,0,17,2.4,23.6,7.3
		c6.5,4.8,10.9,11.5,13.1,19.8H319c-1.5-3.2-3.7-5.7-6.6-7.4c-2.8-1.7-6-2.5-9.6-2.5c-5.8,0-10.5,2-14.1,6.1
		c-3.6,4-5.4,9.4-5.4,16.2c0,6.8,1.8,12.2,5.4,16.2s8.3,6.1,14.1,6.1c3.6,0,6.8-0.8,9.6-2.5c2.8-1.7,5-4.1,6.6-7.4h20.7
		c-2.2,8.4-6.6,15-13.1,19.8s-14.4,7.2-23.6,7.2c-7.5,0-14.2-1.7-20.1-5s-10.5-8-13.8-13.9s-5-12.7-5-20.4
		C264.2,462.5,265.8,455.7,269.1,449.7z"/>
	<path class="st0" d="M370.2,431.6v77.3h-18.8v-77.3L370.2,431.6L370.2,431.6z"/>
	<path class="st0" d="M432,495.3h-28.9l-4.6,13.7h-19.7l28-77.3h21.8l28,77.3h-19.9L432,495.3z M427.1,480.7l-9.6-28.3l-9.5,28.3
		H427.1z"/>
	<path class="st0" d="M490.1,449.7c3.3-6,7.9-10.6,13.8-14c5.9-3.3,12.6-5,20.1-5c9.2,0,17,2.4,23.6,7.3
		c6.5,4.8,10.9,11.5,13.1,19.8H540c-1.5-3.2-3.7-5.7-6.6-7.4c-2.8-1.7-6-2.5-9.6-2.5c-5.8,0-10.5,2-14.1,6.1
		c-3.6,4-5.4,9.4-5.4,16.2c0,6.8,1.8,12.2,5.4,16.2s8.3,6.1,14.1,6.1c3.6,0,6.8-0.8,9.6-2.5s5-4.1,6.6-7.4h20.7
		c-2.2,8.4-6.6,15-13.1,19.8s-14.4,7.2-23.6,7.2c-7.5,0-14.2-1.7-20.1-5s-10.5-8-13.8-13.9s-5-12.7-5-20.4
		C485.2,462.5,486.8,455.7,490.1,449.7z"/>
	<path class="st0" d="M588.9,504.6c-6.1-3.4-10.9-8.1-14.4-14.2c-3.6-6.1-5.3-12.9-5.3-20.4c0-7.6,1.8-14.4,5.3-20.4
		c3.6-6,8.4-10.7,14.4-14.1c6.1-3.4,12.7-5.1,20-5.1s13.9,1.7,20,5.1s10.8,8.1,14.3,14.1s5.2,12.8,5.2,20.4s-1.8,14.4-5.3,20.4
		c-3.5,6.1-8.3,10.8-14.3,14.2c-6,3.4-12.7,5.1-19.9,5.1S594.9,508,588.9,504.6z M623.7,486.3c3.7-4.1,5.6-9.5,5.6-16.3
		s-1.9-12.3-5.6-16.4c-3.7-4.1-8.6-6.1-14.8-6.1s-11.2,2-14.9,6.1c-3.7,4-5.6,9.5-5.6,16.4c0,6.8,1.9,12.3,5.6,16.4
		c3.7,4.1,8.7,6.1,14.9,6.1C615,492.5,620,490.5,623.7,486.3z"/>
	<path class="st0" d="M677.7,494.4h24.7v14.5h-43.5v-77.3h18.8V494.4z"/>
	<path class="st0" d="M730.3,494.4H755v14.5h-43.5v-77.3h18.8V494.4z"/>
	<path class="st0" d="M782.8,446.7v15.6H808v14.5h-25.2v17h28.5v15.1H764v-77.3h47.4v15.1L782.8,446.7L782.8,446.7z"/>
	<path class="st0" d="M874.9,456c-1.4-2.6-3.4-4.5-6-5.9s-5.7-2-9.2-2c-6.1,0-11,2-14.7,6s-5.5,9.3-5.5,16c0,7.1,1.9,12.7,5.8,16.7
		c3.9,4,9.2,6,15.9,6c4.6,0,8.5-1.2,11.7-3.5s5.5-5.7,7-10.1H856v-13.9h41v17.5c-1.4,4.7-3.8,9.1-7.1,13.1s-7.6,7.3-12.7,9.8
		c-5.1,2.5-10.9,3.7-17.4,3.7c-7.6,0-14.4-1.7-20.4-5s-10.6-8-14-13.9c-3.3-5.9-5-12.7-5-20.4c0-7.6,1.7-14.4,5-20.4s8-10.6,13.9-14
		c5.9-3.3,12.7-5,20.4-5c9.3,0,17.1,2.2,23.4,6.7c6.4,4.5,10.6,10.7,12.6,18.6L874.9,456L874.9,456z"/>
	<path class="st0" d="M926.3,446.7v15.6h25.2v14.5h-25.2v17h28.5v15.1h-47.4v-77.3h47.4v15.1L926.3,446.7L926.3,446.7z"/>
	<path class="st0" d="M1007,504.6c-6.1-3.4-10.9-8.1-14.4-14.2c-3.6-6.1-5.3-12.9-5.3-20.4c0-7.6,1.8-14.4,5.3-20.4
		c3.6-6,8.4-10.7,14.4-14.1c6.1-3.4,12.7-5.1,20-5.1c7.3,0,13.9,1.7,20,5.1s10.8,8.1,14.3,14.1s5.2,12.8,5.2,20.4
		s-1.8,14.4-5.3,20.4c-3.5,6.1-8.3,10.8-14.3,14.2c-6,3.4-12.7,5.1-19.9,5.1S1013.1,508,1007,504.6z M1041.8,486.3
		c3.7-4.1,5.6-9.5,5.6-16.3s-1.9-12.3-5.6-16.4s-8.6-6.1-14.8-6.1c-6.2,0-11.2,2-14.9,6.1c-3.7,4-5.6,9.5-5.6,16.4
		c0,6.8,1.9,12.3,5.6,16.4c3.7,4.1,8.7,6.1,14.9,6.1C1033.2,492.5,1038.1,490.5,1041.8,486.3z"/>
	<path class="st0" d="M1127.4,431.6v15.1h-31.5V463h23.6v14.7h-23.6V509H1077v-77.3h50.4V431.6z"/>
	<path class="st0" d="M1216.3,431.6v15.1h-20.5v62.2H1177v-62.2h-20.5v-15.1H1216.3z"/>
	<path class="st0" d="M1244.6,446.7v15.6h25.2v14.5h-25.2v17h28.5v15.1h-47.4v-77.3h47.4v15.1L1244.6,446.7L1244.6,446.7z"/>
	<path class="st0" d="M1287.1,449.7c3.3-6,7.9-10.6,13.8-14c5.9-3.3,12.6-5,20.1-5c9.2,0,17,2.4,23.6,7.3
		c6.5,4.8,10.9,11.5,13.1,19.8H1337c-1.5-3.2-3.7-5.7-6.6-7.4c-2.8-1.7-6-2.5-9.6-2.5c-5.8,0-10.5,2-14.1,6.1
		c-3.6,4-5.4,9.4-5.4,16.2c0,6.8,1.8,12.2,5.4,16.2s8.3,6.1,14.1,6.1c3.6,0,6.8-0.8,9.6-2.5c2.8-1.7,5-4.1,6.6-7.4h20.7
		c-2.2,8.4-6.6,15-13.1,19.8s-14.4,7.2-23.6,7.2c-7.5,0-14.2-1.7-20.1-5s-10.5-8-13.8-13.9s-5-12.7-5-20.4
		C1282.2,462.5,1283.8,455.7,1287.1,449.7z"/>
	<path class="st0" d="M1436.3,431.6v77.3h-18.8v-31.8h-29.3v31.8h-18.8v-77.3h18.8v30.3h29.3v-30.3L1436.3,431.6L1436.3,431.6z"/>
	<path class="st0" d="M1519,508.9h-18.8l-31.5-47.7v47.7h-18.8v-77.3h18.8l31.5,47.9v-47.9h18.8V508.9z"/>
	<path class="st0" d="M1549.2,504.6c-6.1-3.4-10.9-8.1-14.4-14.2c-3.6-6.1-5.3-12.9-5.3-20.4c0-7.6,1.8-14.4,5.3-20.4
		c3.6-6,8.4-10.7,14.4-14.1c6.1-3.4,12.7-5.1,20-5.1s13.9,1.7,20,5.1s10.8,8.1,14.3,14.1s5.2,12.8,5.2,20.4s-1.8,14.4-5.3,20.4
		c-3.5,6.1-8.3,10.8-14.3,14.2c-6,3.4-12.7,5.1-19.9,5.1S1555.3,508,1549.2,504.6z M1584,486.3c3.7-4.1,5.6-9.5,5.6-16.3
		s-1.9-12.3-5.6-16.4s-8.6-6.1-14.8-6.1c-6.2,0-11.2,2-14.9,6.1c-3.7,4-5.6,9.5-5.6,16.4c0,6.8,1.9,12.3,5.6,16.4s8.7,6.1,14.9,6.1
		S1580.3,490.5,1584,486.3z"/>
	<path class="st0" d="M1638.1,494.4h24.7v14.5h-43.5v-77.3h18.8V494.4z"/>
	<path class="st0" d="M1688.4,504.6c-6.1-3.4-10.9-8.1-14.4-14.2c-3.6-6.1-5.3-12.9-5.3-20.4c0-7.6,1.8-14.4,5.3-20.4
		c3.6-6,8.4-10.7,14.4-14.1c6.1-3.4,12.7-5.1,20-5.1s13.9,1.7,20,5.1s10.8,8.1,14.3,14.1s5.2,12.8,5.2,20.4s-1.8,14.4-5.3,20.4
		c-3.5,6.1-8.3,10.8-14.3,14.2c-6,3.4-12.7,5.1-19.9,5.1S1694.4,508,1688.4,504.6z M1723.2,486.3c3.7-4.1,5.6-9.5,5.6-16.3
		s-1.9-12.3-5.6-16.4s-8.6-6.1-14.8-6.1c-6.2,0-11.2,2-14.9,6.1c-3.7,4-5.6,9.5-5.6,16.4c0,6.8,1.9,12.3,5.6,16.4s8.7,6.1,14.9,6.1
		C1714.5,492.5,1719.5,490.5,1723.2,486.3z"/>
	<path class="st0" d="M1809.7,456c-1.4-2.6-3.4-4.5-6-5.9s-5.7-2-9.2-2c-6.1,0-11,2-14.7,6s-5.5,9.3-5.5,16c0,7.1,1.9,12.7,5.8,16.7
		s9.2,6,15.9,6c4.6,0,8.5-1.2,11.7-3.5s5.5-5.7,7-10.1h-23.9v-13.9h41v17.5c-1.4,4.7-3.8,9.1-7.1,13.1c-3.3,4-7.6,7.3-12.7,9.8
		s-10.9,3.7-17.4,3.7c-7.6,0-14.5-1.7-20.4-5c-6-3.3-10.6-8-14-13.9c-3.3-5.9-5-12.7-5-20.4c0-7.6,1.7-14.4,5-20.4s8-10.6,13.9-14
		c5.9-3.3,12.7-5,20.4-5c9.3,0,17.1,2.2,23.4,6.7c6.4,4.5,10.6,10.7,12.6,18.6L1809.7,456L1809.7,456z"/>
	<path class="st0" d="M1908.6,431.6l-26.8,51.8V509H1863v-25.6l-26.8-51.8h21.4l15,32.4l14.9-32.4H1908.6z"/>
</g>
<g class="st1">
	<path class="st0" d="M497.9,595.7c-2.1,3.7-5.2,6.7-9.5,9s-9.5,3.4-15.9,3.4h-11.7v27.8H442v-77.3h30.5c6.2,0,11.4,1.1,15.6,3.2
		c4.3,2.1,7.5,5.1,9.6,8.8s3.2,8,3.2,12.9C501,587.9,499.9,592,497.9,595.7z M479.2,590.5c1.8-1.7,2.6-4.1,2.6-7.2
		c0-3.1-0.9-5.5-2.6-7.2c-1.8-1.7-4.4-2.5-8-2.5H461V593h10.2C474.7,593.1,477.4,592.2,479.2,590.5z"/>
	<path class="st0" d="M550.2,635.8l-16.1-29.2h-4.5v29.2h-18.8v-77.3h31.6c6.1,0,11.3,1.1,15.6,3.2c4.3,2.1,7.5,5,9.6,8.8
		c2.1,3.7,3.2,7.8,3.2,12.4c0,5.1-1.5,9.7-4.4,13.8c-2.9,4-7.2,6.9-12.8,8.6l17.8,30.6L550.2,635.8L550.2,635.8z M529.6,593.3h11.7
		c3.5,0,6-0.8,7.8-2.5c1.7-1.7,2.6-4.1,2.6-7.2c0-2.9-0.9-5.2-2.6-6.9c-1.7-1.7-4.3-2.5-7.8-2.5h-11.7V593.3z"/>
	<path class="st0" d="M599.2,631.5c-6.1-3.4-10.9-8.1-14.4-14.2c-3.6-6.1-5.3-12.9-5.3-20.4c0-7.6,1.8-14.4,5.3-20.4
		c3.6-6,8.4-10.7,14.4-14.1c6.1-3.4,12.7-5.1,20-5.1s13.9,1.7,20,5.1c6.1,3.4,10.8,8.1,14.3,14.1s5.2,12.8,5.2,20.4
		c0,7.6-1.8,14.4-5.3,20.4c-3.5,6.1-8.3,10.8-14.3,14.2s-12.7,5.1-19.9,5.1S605.2,634.9,599.2,631.5z M634,613.2
		c3.7-4.1,5.6-9.5,5.6-16.3s-1.9-12.3-5.6-16.4c-3.7-4.1-8.6-6.1-14.8-6.1s-11.2,2-14.9,6.1c-3.7,4-5.6,9.5-5.6,16.4
		c0,6.8,1.9,12.3,5.6,16.4c3.7,4.1,8.7,6.1,14.9,6.1C625.3,619.4,630.3,617.4,634,613.2z"/>
	<path class="st0" d="M670.9,576.6c3.3-6,7.9-10.6,13.8-14c5.9-3.3,12.6-5,20.1-5c9.2,0,17,2.4,23.6,7.3
		c6.5,4.8,10.9,11.5,13.1,19.8h-20.7c-1.5-3.2-3.7-5.7-6.6-7.4c-2.8-1.7-6-2.5-9.6-2.5c-5.8,0-10.5,2-14.1,6.1
		c-3.6,4-5.4,9.4-5.4,16.2s1.8,12.2,5.4,16.2c3.6,4,8.3,6.1,14.1,6.1c3.6,0,6.8-0.8,9.6-2.5s5-4.1,6.6-7.4h20.7
		c-2.2,8.4-6.6,15-13.1,19.8s-14.4,7.2-23.6,7.2c-7.5,0-14.2-1.7-20.1-5c-5.9-3.3-10.5-8-13.8-13.9s-5-12.7-5-20.4
		C666,589.4,667.6,582.6,670.9,576.6z"/>
	<path class="st0" d="M772,573.6v15.6h25.2v14.5H772v17h28.5v15.1h-47.4v-77.3h47.4v15.1L772,573.6L772,573.6z"/>
	<path class="st0" d="M825.5,633.8c-4.5-1.8-8.1-4.6-10.7-8.2c-2.7-3.6-4.1-7.9-4.2-13h20c0.3,2.9,1.3,5.1,3,6.6s3.9,2.3,6.6,2.3
		c2.8,0,5-0.6,6.6-1.9c1.6-1.3,2.4-3.1,2.4-5.3c0-1.9-0.6-3.5-1.9-4.7c-1.3-1.2-2.9-2.3-4.7-3.1c-1.9-0.8-4.5-1.7-8-2.8
		c-5-1.5-9.1-3.1-12.2-4.6c-3.2-1.5-5.9-3.8-8.2-6.8s-3.4-6.9-3.4-11.8c0-7.2,2.6-12.8,7.8-16.9c5.2-4.1,12-6.1,20.4-6.1
		c8.5,0,15.4,2,20.6,6.1c5.2,4.1,8,9.7,8.4,17h-20.4c-0.1-2.5-1.1-4.5-2.8-5.9s-3.9-2.1-6.5-2.1c-2.3,0-4.1,0.6-5.5,1.8
		s-2.1,3-2.1,5.2c0,2.5,1.2,4.4,3.5,5.8c2.3,1.4,6,2.9,11,4.5c5,1.7,9.1,3.3,12.2,4.8c3.1,1.5,5.8,3.8,8.1,6.7s3.4,6.7,3.4,11.3
		c0,4.4-1.1,8.4-3.4,12c-2.2,3.6-5.5,6.5-9.7,8.6c-4.3,2.1-9.3,3.2-15.1,3.2C835,636.6,830,635.7,825.5,633.8z"/>
	<path class="st0" d="M893.2,633.8c-4.5-1.8-8.1-4.6-10.7-8.2c-2.7-3.6-4.1-7.9-4.2-13h20c0.3,2.9,1.3,5.1,3,6.6s3.9,2.3,6.6,2.3
		c2.8,0,5-0.6,6.6-1.9c1.6-1.3,2.4-3.1,2.4-5.3c0-1.9-0.6-3.5-1.9-4.7c-1.3-1.2-2.9-2.3-4.7-3.1c-1.9-0.8-4.5-1.7-8-2.8
		c-5-1.5-9.1-3.1-12.2-4.6c-3.2-1.5-5.9-3.8-8.2-6.8s-3.4-6.9-3.4-11.8c0-7.2,2.6-12.8,7.8-16.9c5.2-4.1,12-6.1,20.4-6.1
		c8.5,0,15.4,2,20.6,6.1c5.2,4.1,8,9.7,8.4,17h-20.4c-0.1-2.5-1.1-4.5-2.8-5.9s-3.9-2.1-6.5-2.1c-2.3,0-4.1,0.6-5.5,1.8
		s-2.1,3-2.1,5.2c0,2.5,1.2,4.4,3.5,5.8c2.3,1.4,6,2.9,11,4.5c5,1.7,9.1,3.3,12.2,4.8c3.1,1.5,5.8,3.8,8.1,6.7s3.4,6.7,3.4,11.3
		c0,4.4-1.1,8.4-3.4,12c-2.2,3.6-5.5,6.5-9.7,8.6c-4.3,2.1-9.3,3.2-15.1,3.2C902.8,636.6,897.7,635.7,893.2,633.8z"/>
	<path class="st0" d="M967.1,558.5v77.3h-18.8v-77.3H967.1z"/>
	<path class="st0" d="M1049.9,635.8h-18.8l-31.5-47.7v47.7h-18.8v-77.3h18.8l31.5,47.9v-47.9h18.8V635.8z"/>
	<path class="st0" d="M1114.9,582.9c-1.4-2.6-3.4-4.5-6-5.9s-5.7-2-9.2-2c-6.1,0-11,2-14.7,6s-5.5,9.3-5.5,16
		c0,7.1,1.9,12.7,5.8,16.7s9.2,6,15.9,6c4.6,0,8.5-1.2,11.7-3.5s5.5-5.7,7-10.1H1096v-13.9h41v17.5c-1.4,4.7-3.8,9.1-7.1,13.1
		c-3.3,4-7.6,7.3-12.7,9.8s-10.9,3.7-17.4,3.7c-7.6,0-14.5-1.7-20.4-5c-6-3.3-10.6-8-14-13.9c-3.3-5.9-5-12.7-5-20.4
		c0-7.6,1.7-14.4,5-20.4s8-10.6,13.9-14c5.9-3.3,12.7-5,20.4-5c9.3,0,17.1,2.2,23.4,6.7c6.4,4.5,10.6,10.7,12.6,18.6L1114.9,582.9
		L1114.9,582.9z"/>
	<path class="st0" d="M1222.2,582.9c-1.4-2.6-3.4-4.5-6-5.9s-5.7-2-9.2-2c-6.1,0-11,2-14.7,6s-5.5,9.3-5.5,16
		c0,7.1,1.9,12.7,5.8,16.7s9.2,6,15.9,6c4.6,0,8.5-1.2,11.7-3.5s5.5-5.7,7-10.1h-23.9v-13.9h41v17.5c-1.4,4.7-3.8,9.1-7.1,13.1
		c-3.3,4-7.6,7.3-12.7,9.8s-10.9,3.7-17.4,3.7c-7.6,0-14.5-1.7-20.4-5c-6-3.3-10.6-8-14-13.9c-3.3-5.9-5-12.7-5-20.4
		c0-7.6,1.7-14.4,5-20.4s8-10.6,13.9-14c5.9-3.3,12.7-5,20.4-5c9.3,0,17.1,2.2,23.4,6.7c6.4,4.5,10.6,10.7,12.6,18.6L1222.2,582.9
		L1222.2,582.9z"/>
	<path class="st0" d="M1273.3,558.5v46.3c0,4.6,1.1,8.2,3.4,10.7s5.6,3.7,10,3.7s7.8-1.2,10.1-3.7c2.3-2.5,3.5-6.1,3.5-10.7v-46.3
		h18.8v46.2c0,6.9-1.5,12.7-4.4,17.5s-6.9,8.4-11.8,10.8s-10.5,3.6-16.6,3.6s-11.5-1.2-16.4-3.6c-4.8-2.4-8.6-6-11.4-10.8
		s-4.2-10.7-4.2-17.6v-46.2L1273.3,558.5L1273.3,558.5z"/>
	<path class="st0" d="M1351.3,558.5v77.3h-18.8v-77.3H1351.3z"/>
	<path class="st0" d="M1415.3,563.3c6.1,3.2,10.8,7.8,14.2,13.6c3.3,5.8,5,12.6,5,20.2c0,7.6-1.7,14.3-5,20.2s-8.1,10.4-14.2,13.7
		c-6.1,3.2-13.2,4.8-21.3,4.8h-29v-77.3h29C1402.1,558.5,1409.2,560.1,1415.3,563.3z M1409.3,613.7c4-3.9,5.9-9.4,5.9-16.5
		s-2-12.7-5.9-16.6c-4-4-9.5-5.9-16.6-5.9h-8.9v44.9h8.9C1399.8,619.5,1405.4,617.6,1409.3,613.7z"/>
	<path class="st0" d="M1463.9,573.6v15.6h25.2v14.5h-25.2v17h28.5v15.1H1445v-77.3h47.4v15.1L1463.9,573.6L1463.9,573.6z"/>
</g>
</svg>
