<?xml version="1.0" encoding="utf-8"?>
<!-- Generator: Adobe Illustrator 22.1.0, SVG Export Plug-In . SVG Version: 6.00 Build 0)  -->
<svg version="1.1" xmlns="http://www.w3.org/2000/svg" xmlns:xlink="http://www.w3.org/1999/xlink" x="0px" y="0px"
	 viewBox="0 0 1080 1080" style="enable-background:new 0 0 1080 1080;" xml:space="preserve">
<style type="text/css">
	.st0{fill:#FFFFFF;}
	.st1{display:none;}
</style>
<g id="Layer_2">
	<path d="M882.5,1080h-685C88.4,1080,0,991.6,0,882.5v-685C0,88.4,88.4,0,197.5,0h685C991.6,0,1080,88.4,1080,197.5v685
		C1080,991.6,991.6,1080,882.5,1080z"/>
</g>
<g id="Layer_3">
	<path class="st0" d="M893.1,729.4c0,1,0,2.1,0,3.1c0,2.1,0,4.1-0.1,6.2v0.1l-0.5,82.9c0,0.3,0,0.6,0,0.8H261.3
		c10.4,22.3,16,35,31.3,35H885c-12.5,28.5-39.3,49.3-71.4,53.1c-3.5,0.4-7.1,0.7-10.8,0.7H287.6c-55.3,0-100.1-44.8-100.1-100.1
		V205.4c0-26.5,21.4-47.9,47.9-47.9l450.7,0.5c89.2,0,124.3,55,116.4,124.5H651.3v35h144c-4.3,14.4-10.1,29.1-17.5,43.8H638.8v35
		h118.6c-12.4,18.5-27.2,36.7-44.2,53.8h-83.8c-45.9,1.6-145.4,18.7-180.3,133.8c27.6-44.7,74-76.4,147.6-86.9
		c17.5-2.5,36.5-3.8,57.1-3.8c184.2,0,237.9,104.1,239.3,233.7l0,0l0,2.2V729.4z"/>
	<path class="st1" d="M481,771.9c0,10.5-8.4,20-22.2,27.1H336.4c-13.8-7.1-22.2-16.6-22.2-27.1c0-0.2,0-0.3,0-0.5
		c0.5-21.8,37.7-39.4,83.4-39.4s82.8,17.6,83.4,39.4C481,771.6,481,771.7,481,771.9z"/>
</g>
</svg>
