<?xml version="1.0" encoding="utf-8"?>
<!-- Generator: Adobe Illustrator 22.1.0, SVG Export Plug-In . SVG Version: 6.00 Build 0)  -->
<svg version="1.1" xmlns="http://www.w3.org/2000/svg" xmlns:xlink="http://www.w3.org/1999/xlink" x="0px" y="0px"
	 viewBox="0 0 1080 1080" style="enable-background:new 0 0 1080 1080;" xml:space="preserve">
<style type="text/css">
	.st0{display:none;}
	.st1{display:inline;}
</style>
<g id="Layer_2" class="st0">
	<path class="st1" d="M882.5,1080h-685C88.4,1080,0,991.6,0,882.5v-685C0,88.4,88.4,0,197.5,0h685C991.6,0,1080,88.4,1080,197.5v685
		C1080,991.6,991.6,1080,882.5,1080z"/>
</g>
<g id="Layer_3">
	<path d="M1045.9,819.4c0,1.5,0,3,0,4.4c0,3,0,5.9-0.1,8.8v0.2l-0.8,118.8c0,0.4,0,0.8,0,1.2H140.4c14.9,32,23,50.2,44.8,50.2h849.2
		c-17.8,40.8-56.3,70.6-102.3,76.1c-5.1,0.6-10.2,0.9-15.4,0.9H178.1c-79.2,0-143.4-64.2-143.4-143.4V68.4
		c0-37.9,30.7-68.7,68.7-68.7l645.9,0.7c127.8,0,178.1,78.8,166.8,178.4H699.3v50.2h206.4c-6.1,20.6-14.5,41.7-25,62.7H681.4v50.2
		h170c-17.8,26.6-39,52.6-63.4,77.1H668c-65.8,2.2-208.4,26.7-258.4,191.8c39.6-64,106.1-109.5,211.5-124.6
		c25-3.6,52.3-5.5,81.9-5.5c264,0,340.9,149.2,343,335l0.1,0l0,3.2V819.4z"/>
	<path class="st0" d="M455.3,880.3c0,15-12,28.7-31.8,38.8H248.1c-19.7-10.2-31.8-23.8-31.8-38.8c0-0.2,0-0.5,0-0.7
		c0.8-31.3,54-56.5,119.5-56.5s118.7,25.2,119.5,56.5C455.3,879.8,455.3,880.1,455.3,880.3z"/>
</g>
</svg>
