<?xml version="1.0" encoding="utf-8"?>
<!-- Generator: Adobe Illustrator 22.1.0, SVG Export Plug-In . SVG Version: 6.00 Build 0)  -->
<svg version="1.1" id="Layer_1" xmlns="http://www.w3.org/2000/svg" xmlns:xlink="http://www.w3.org/1999/xlink" x="0px" y="0px"
	 viewBox="0 0 2481 482" style="enable-background:new 0 0 2481 482;" xml:space="preserve">
<path d="M376.5,0h-271C47.2,0,0,47.2,0,105.5v271C0,434.8,47.2,482,105.5,482h271c58.3,0,105.5-47.2,105.5-105.5v-271
	C482,47.2,434.8,0,376.5,0z M398.6,329.8l-0.2,37v0.4H116.6c4.6,10,7.2,15.6,13.9,15.6H395c-5.6,12.7-17.5,22-31.8,23.7
	c-1.6,0.2-3.2,0.3-4.8,0.3h-230c-24.7,0-44.7-20-44.7-44.7V91.7c0-11.8,9.6-21.4,21.4-21.4l201.1,0.2c39.8,0,55.5,24.6,51.9,55.6
	h-67.5v15.6h64.3c-1.9,6.4-4.5,13-7.8,19.5H285v15.6h53c-5.6,8.3-12.2,16.4-19.7,24h-37.4c-20.5,0.7-64.9,8.3-80.5,59.7
	c12.3-19.9,33-34.1,65.9-38.8c7.8-1.1,16.3-1.7,25.5-1.7c82.2,0,106.2,46.5,106.8,104.3V329.8z"/>
<g>
	<path d="M872.8,273.3c11.8,15.5,17.8,33.4,17.8,53.8c0,31-10.3,54.9-30.8,71.8c-20.5,16.8-49.9,25.3-88.3,25.3H586V70h180.5
		c36,0,64.3,7.8,85,23.5s31,38.5,31,68.5c0,20.7-5.4,38.1-16.3,52.3c-10.8,14.2-25.3,23.6-43.3,28.3
		C844.3,247.5,860.9,257.8,872.8,273.3z M697,208h43c10,0,17.4-2,22.3-6c4.8-4,7.3-10.2,7.3-18.5c0-8.7-2.4-15.1-7.3-19.3
		c-4.8-4.2-12.3-6.3-22.3-6.3h-43V208z M769.8,329.3c4.8-3.8,7.3-10.1,7.3-18.8c0-17-9.8-25.5-29.5-25.5H697v50h50.5
		C757.5,335,764.9,333.1,769.8,329.3z"/>
	<path d="M1268,70l-127,246.5V424h-111V316.5L903,70h127l56.5,125.5L1143,70H1268z"/>
	<path d="M1326.7,397.8c-27.5-19.8-42.4-48.9-44.8-87.3h118c1.7,20.3,10.7,30.5,27,30.5c6,0,11.1-1.4,15.3-4.3
		c4.2-2.8,6.3-7.3,6.3-13.3c0-8.3-4.5-15.1-13.5-20.3c-9-5.2-23-11.1-42-17.8c-22.7-8-41.4-15.8-56.3-23.5
		c-14.8-7.7-27.6-18.8-38.3-33.5c-10.7-14.7-15.8-33.5-15.5-56.5c0-23,5.9-42.6,17.8-58.8c11.8-16.2,28-28.4,48.5-36.8
		c20.5-8.3,43.6-12.5,69.3-12.5c43.3,0,77.8,10,103.3,30s38.9,48.2,40.3,84.5h-119.5c-0.3-10-2.8-17.2-7.5-21.5s-10.3-6.5-17-6.5
		c-4.7,0-8.5,1.6-11.5,4.8s-4.5,7.6-4.5,13.3c0,8,4.4,14.6,13.3,19.8c8.8,5.2,22.9,11.4,42.3,18.8c22.3,8.3,40.8,16.3,55.3,24
		s27.1,18.3,37.8,32c10.7,13.7,16,30.8,16,51.5c0,21.7-5.3,41.1-16,58.3c-10.7,17.2-26.2,30.6-46.5,40.3
		c-20.3,9.7-44.5,14.5-72.5,14.5C1389.2,427.5,1354.2,417.6,1326.7,397.8z"/>
	<path d="M1883.5,70v88h-94v266h-111V158h-93V70H1883.5z"/>
	<path d="M2024.5,158.5V202h110v83.5h-110v50h125V424h-236V70h236v88.5H2024.5z"/>
	<path d="M2465.5,252.3c-10.3,18.2-25.6,32.6-45.8,43.3s-44.6,16-73.3,16h-44V424h-111V70h155c43.3,0,76.6,11,99.8,33
		s34.8,51.5,34.8,88.5C2481,213.8,2475.8,234.1,2465.5,252.3z M2368.5,191.5c0-21.7-11.5-32.5-34.5-32.5h-31.5v65h31.5
		C2357,224,2368.5,213.2,2368.5,191.5z"/>
</g>
</svg>
