<?xml version="1.0" encoding="utf-8"?>
<!-- Generator: Adobe Illustrator 24.3.0, SVG Export Plug-In . SVG Version: 6.00 Build 0)  -->
<svg version="1.1" id="Layer_1" xmlns="http://www.w3.org/2000/svg" xmlns:xlink="http://www.w3.org/1999/xlink" x="0px" y="0px"
	 viewBox="0 0 1933 363" style="enable-background:new 0 0 1933 363;" xml:space="preserve">
<style type="text/css">
	.st0{fill:#333399;}
</style>
<path class="st0" d="M328.3,275.4c0,0.5,0,1,0,1.4c0,1,0,1.9,0,2.9v0.1l-0.3,38.6c0,0.1,0,0.3,0,0.4H34.3
	c4.8,10.4,7.5,16.3,14.5,16.3h275.7c-5.8,13.3-18.3,22.9-33.2,24.7c-1.6,0.2-3.3,0.3-5,0.3H46.5C20.8,360,0,339.2,0,313.4V31.6
	C0,19.3,10,9.3,22.3,9.3L232,9.5c41.5,0,57.8,25.6,54.2,57.9h-70.4v16.3h67c-2,6.7-4.7,13.5-8.1,20.4H210v16.3h55.2
	c-5.8,8.6-12.7,17.1-20.6,25h-39c-21.4,0.7-67.7,8.7-83.9,62.3c12.8-20.8,34.5-35.5,68.7-40.5c8.1-1.2,17-1.8,26.6-1.8
	c85.7,0,110.7,48.5,111.4,108.8l0,0v1v0.2L328.3,275.4L328.3,275.4z"/>
<g>
	<path class="st0" d="M720,6L593,252.5V360H482V252.5L355,6h127l56.5,125.5L595,6H720z"/>
	<path class="st0" d="M778.7,333.8c-27.5-19.8-42.4-48.9-44.8-87.3h118c1.7,20.3,10.7,30.5,27,30.5c6,0,11.1-1.4,15.3-4.3
		c4.2-2.8,6.3-7.3,6.3-13.3c0-8.3-4.5-15.1-13.5-20.3s-23-11.1-42-17.8c-22.7-8-41.4-15.8-56.3-23.5c-14.8-7.7-27.6-18.8-38.3-33.5
		C739.8,149.8,734.7,131,735,108c0-23,5.9-42.6,17.8-58.8c11.8-16.2,28-28.4,48.5-36.8C821.7,4.2,844.8,0,870.5,0
		c43.3,0,77.8,10,103.3,30s38.9,48.2,40.3,84.5H894.5c-0.3-10-2.8-17.2-7.5-21.5s-10.3-6.5-17-6.5c-4.7,0-8.5,1.6-11.5,4.8
		c-3,3.2-4.5,7.6-4.5,13.3c0,8,4.4,14.6,13.3,19.8c8.8,5.2,22.9,11.4,42.3,18.8c22.3,8.3,40.8,16.3,55.3,24s27.1,18.3,37.8,32
		s16,30.8,16,51.5c0,21.7-5.3,41.1-16,58.3c-10.7,17.2-26.2,30.6-46.5,40.3c-20.3,9.7-44.5,14.5-72.5,14.5
		C841.2,363.5,806.2,353.6,778.7,333.8z"/>
	<path class="st0" d="M1335.5,6v88h-94v266h-111V94h-93V6H1335.5z"/>
	<path class="st0" d="M1476.5,94.5V138h110v83.5h-110v50h125V360h-236V6h236v88.5H1476.5z"/>
	<path class="st0" d="M1917.5,188.3c-10.3,18.2-25.6,32.6-45.8,43.3c-20.2,10.7-44.6,16-73.3,16h-44V360h-111V6h155
		c43.3,0,76.6,11,99.8,33c23.2,22,34.8,51.5,34.8,88.5C1933,149.8,1927.8,170.1,1917.5,188.3z M1820.5,127.5
		c0-21.7-11.5-32.5-34.5-32.5h-31.5v65h31.5C1809,160,1820.5,149.2,1820.5,127.5z"/>
</g>
</svg>
