<svg id="Layer_1" data-name="Layer 1" xmlns="http://www.w3.org/2000/svg" viewBox="0 0 1011.4 1080.3"><defs><style>.cls-1{fill:#7da7d9;}</style></defs><path class="cls-1" d="M1045.9,819.4v4.4c0,3,0,5.9-.1,8.8v.2l-.8,118.8v1.2H140.4c14.9,32,23,50.2,44.8,50.2h849.2a128.46,128.46,0,0,1-102.3,76.1,131.27,131.27,0,0,1-15.4.9H178.1A143.4,143.4,0,0,1,34.7,936.6V68.4A68.69,68.69,0,0,1,103.4-.3L749.3.4C877.1.4,927.4,79.2,916.1,178.8H699.3V229H905.7a386.12,386.12,0,0,1-25,62.7H681.4v50.2h170A517.42,517.42,0,0,1,788,419H668c-65.8,2.2-208.4,26.7-258.4,191.8,39.6-64,106.1-109.5,211.5-124.6a575.69,575.69,0,0,1,81.9-5.5c264,0,340.9,149.2,343,335h.1v3.7Z" transform="translate(-34.7 0.3)"/></svg>