<svg id="Layer_1" data-name="Layer 1" xmlns="http://www.w3.org/2000/svg" viewBox="0 0 1080 1080"><defs><style>.cls-1{fill:#fff;}</style></defs><path d="M882.5,1080h-685C88.4,1080,0,991.6,0,882.5v-685C0,88.4,88.4,0,197.5,0h685C991.6,0,1080,88.4,1080,197.5v685C1080,991.6,991.6,1080,882.5,1080Z"/><path class="cls-1" d="M893.1,729.4v3.1c0,2.1,0,4.1-.1,6.2v.1l-.5,82.9v.8H261.3c10.4,22.3,16,35,31.3,35H885a89.64,89.64,0,0,1-71.4,53.1,94.81,94.81,0,0,1-10.8.7H287.6A100.08,100.08,0,0,1,187.5,811.2V205.4a47.84,47.84,0,0,1,47.9-47.9l450.7.5c89.2,0,124.3,55,116.4,124.5H651.3v35h144a268.34,268.34,0,0,1-17.5,43.8h-139v35H757.4a364.41,364.41,0,0,1-44.2,53.8H629.4c-45.9,1.6-145.4,18.7-180.3,133.8,27.6-44.7,74-76.4,147.6-86.9a404.17,404.17,0,0,1,57.1-3.8c184.2,0,237.9,104.1,239.3,233.7h0v2.5Z"/></svg>