<svg id="Layer_1" data-name="Layer 1" xmlns="http://www.w3.org/2000/svg" viewBox="0 0 1011.4 1080.3"><defs><style>.cls-1{fill:#339;}</style></defs><path class="cls-1" d="M1011.2,819.7v4.4c0,3,0,5.9-.1,8.8v.2l-.8,118.8v1.2H105.7c14.9,32,23,50.2,44.8,50.2H999.7a128.47,128.47,0,0,1-102.3,76.1,132,132,0,0,1-15.4.9H143.4A143.4,143.4,0,0,1,0,936.9H0V68.7A68.69,68.69,0,0,1,68.68,0h0L714.6.7C842.4.7,892.7,79.5,881.4,179.1H664.6v50.2H871A386.17,386.17,0,0,1,846,292H646.7v50.2h170a517.73,517.73,0,0,1-63.4,77.1h-120c-65.8,2.2-208.4,26.7-258.4,191.8,39.6-64,106.1-109.5,211.5-124.6a575.24,575.24,0,0,1,81.9-5.5c264,0,340.9,149.2,343,335h.1v3.7Z" transform="translate(0 0)"/></svg>